HIERARCHY
ROOT Hips
{
	OFFSET 0.000000 0.000000 0.000000
	CHANNELS 6 Xposition Yposition Zposition Xrotation Yrotation Zrotation
	JOINT LeftUpLeg_virtual
	{
		OFFSET 0.000000 0.000000 0.000000
		CHANNELS 3 Xrotation Yrotation Zrotation
		JOINT LeftUpLeg
		{
			OFFSET 13.026900 -6.336304 -1.092800
			CHANNELS 3 Xrotation Yrotation Zrotation
			JOINT LeftLeg
			{
				OFFSET 0.524474 -46.096886 9.782700
				CHANNELS 3 Xrotation Yrotation Zrotation
				JOINT LeftFoot
				{
					OFFSET -0.524474 -53.427422 -12.948200
					CHANNELS 3 Xrotation Yrotation Zrotation
					JOINT LeftToeBase
					{
						OFFSET 0.192200 -14.009700 16.364100
						CHANNELS 3 Xrotation Yrotation Zrotation
						JOINT LeftToe_End
						{
							OFFSET -1.784700 -0.561700 9.474800
							CHANNELS 3 Xrotation Yrotation Zrotation
							End Site
							{
								OFFSET 0 0 0
							}
						}
					}
				}
			}
		}
	}
	JOINT RightUpLeg_virtual
	{
		OFFSET 0.000000 0.000000 0.000000
		CHANNELS 3 Xrotation Yrotation Zrotation
		JOINT RightUpLeg
		{
			OFFSET -12.883000 -6.336304 -1.092800
			CHANNELS 3 Xrotation Yrotation Zrotation
			JOINT RightLeg
			{
				OFFSET -0.524587 -46.096825 9.782800
				CHANNELS 3 Xrotation Yrotation Zrotation
				JOINT RightFoot
				{
					OFFSET 0.524587 -53.427383 -12.948300
					CHANNELS 3 Xrotation Yrotation Zrotation
					JOINT RightToeBase
					{
						OFFSET -0.192200 -14.009700 16.364100
						CHANNELS 3 Xrotation Yrotation Zrotation
						JOINT RightToe_End
						{
							OFFSET 1.784700 -0.561700 9.474800
							CHANNELS 3 Xrotation Yrotation Zrotation
							End Site
							{
								OFFSET 0 0 0
							}
						}
					}
				}
			}
		}
	}
	JOINT Spine_virtual
	{
		OFFSET 0.000000 0.000000 0.000000
		CHANNELS 3 Xrotation Yrotation Zrotation
		JOINT Spine
		{
			OFFSET 0.072000 7.257294 -0.789700
			CHANNELS 3 Xrotation Yrotation Zrotation
			JOINT Spine1
			{
				OFFSET 0.000000 12.508769 -0.658067
				CHANNELS 3 Xrotation Yrotation Zrotation
				JOINT Spine1_split
				{
					OFFSET 0.000000 12.508769 -0.658067
					CHANNELS 3 Xrotation Yrotation Zrotation
					JOINT Spine2
					{
						OFFSET 0.000000 12.508769 -0.658067
						CHANNELS 3 Xrotation Yrotation Zrotation
						JOINT Neck_virtual
						{
							OFFSET 0.000000 0.000000 0.000000
							CHANNELS 3 Xrotation Yrotation Zrotation
							JOINT Neck
							{
								OFFSET 0.000000 14.033295 7.520400
								CHANNELS 3 Xrotation Yrotation Zrotation
								JOINT Head
								{
									OFFSET 0.000000 8.198502 5.703100
									CHANNELS 3 Xrotation Yrotation Zrotation
									JOINT HeadTop_End
									{
										OFFSET 0.000000 17.760803 13.332701
										CHANNELS 3 Xrotation Yrotation Zrotation
										End Site
										{
											OFFSET 0 0 0
										}
									}
								}
							}
						}
						JOINT LeftShoulder_virtual
						{
							OFFSET 0.000000 0.000000 0.000000
							CHANNELS 3 Xrotation Yrotation Zrotation
							JOINT LeftShoulder
							{
								OFFSET 6.292450 5.785301 -0.669000
								CHANNELS 3 Xrotation Yrotation Zrotation
								JOINT LeftShoulder_split
								{
									OFFSET 6.292450 5.785301 -0.669000
									CHANNELS 3 Xrotation Yrotation Zrotation
									JOINT LeftArm
									{
										OFFSET 13.907140 -6.093903 1.965100
										CHANNELS 3 Xrotation Yrotation Zrotation
										JOINT LeftForeArm
										{
											OFFSET 34.140198 0.000000 0.000000
											CHANNELS 3 Xrotation Yrotation Zrotation
											JOINT LeftHand
											{
												OFFSET 40.960209 0.000000 0.000000
												CHANNELS 3 Xrotation Yrotation Zrotation
												End Site
												{
													OFFSET 0 0 0
												}
											}
										}
									}
								}
							}
						}
						JOINT RightShoulder_virtual
						{
							OFFSET 0.000000 0.000000 0.000000
							CHANNELS 3 Xrotation Yrotation Zrotation
							JOINT RightShoulder
							{
								OFFSET -6.292450 5.785301 -0.669000
								CHANNELS 3 Xrotation Yrotation Zrotation
								JOINT RightShoulder_split
								{
									OFFSET -6.292450 5.785301 -0.669000
									CHANNELS 3 Xrotation Yrotation Zrotation
									JOINT RightArm
									{
										OFFSET -13.907140 -6.093903 1.965100
										CHANNELS 3 Xrotation Yrotation Zrotation
										JOINT RightForeArm
										{
											OFFSET -34.140198 0.000000 0.000000
											CHANNELS 3 Xrotation Yrotation Zrotation
											JOINT RightHand
											{
												OFFSET -40.960209 0.000000 0.000000
												CHANNELS 3 Xrotation Yrotation Zrotation
												End Site
												{
													OFFSET 0 0 0
												}
											}
										}
									}
								}
							}
						}
					}
				}
			}
		}
	}
}
MOTION
Frames: 4
Frame Time: 0.03333333
-0.400123 115.369293 14.804520 0.000000 0.000000 0.000000 2.859330 32.170464 -1.470324 -22.358254 7.759016 4.609585 21.511744 -17.517415 -4.190148 -5.498854 -11.358486 3.575629 -1.451035 -0.276683 -0.228265 0.000000 0.000000 0.000000 2.867427 32.552203 -1.807268 -12.749399 14.989533 2.375082 20.019877 17.790694 -2.152562 -8.242591 5.099249 -4.677615 -4.167740 -0.801645 0.817407 0.000000 0.000000 0.000000 3.316004 34.201465 -2.183089 7.138932 0.998343 -0.845494 0.619010 0.738345 1.364976 0.573929 0.481970 0.625537 0.000000 0.000000 0.000000 1.017645 1.029687 1.531553 -3.278206 29.171140 -8.188340 -6.414340 23.351624 -2.906246 0.000000 0.000000 0.000000 1.375712 1.037172 1.793700 0.074009 -3.304284 -1.574459 4.985721 0.530248 -2.366446 -63.284810 18.474801 -19.283909 10.375315 -74.353084 12.387521 0.000000 0.000000 0.000000 1.401131 1.077483 1.411160 4.628704 6.493870 9.253005 -2.801110 -0.852855 0.978960 12.035858 21.820383 62.604817 10.495170 22.886149 -4.204112 0.000000 0.000000 0.000000 
-1.904839 115.621094 15.575626 0.000000 0.000000 0.000000 3.170960 37.518885 -2.165846 -23.238252 8.902516 5.683095 21.339621 -18.013338 -3.868870 -4.818049 -10.131379 3.538257 -1.766844 -0.328101 0.088760 0.000000 0.000000 0.000000 3.496260 38.019490 -2.662113 -12.222892 13.937203 1.833634 18.522841 15.110146 -0.763920 -8.462452 3.893455 -4.996064 -3.016531 -0.861404 1.014344 0.000000 0.000000 0.000000 3.568224 39.509745 -2.847519 7.263329 0.659202 -1.271940 0.593861 0.458953 1.368949 0.612357 0.414921 0.596489 0.000000 0.000000 0.000000 1.042302 0.769503 1.621761 -3.490862 27.431071 -8.288437 -7.318035 21.527085 -1.522387 0.000000 0.000000 0.000000 1.265894 0.778696 1.909752 0.121788 -6.544747 -0.858232 4.846085 0.479982 -2.204443 -63.328544 16.298626 -20.732809 9.681515 -72.664846 11.971976 0.000000 0.000000 0.000000 1.321390 0.797066 1.543935 4.581888 6.275818 8.886382 -3.305780 -0.710319 0.939595 11.209129 18.741254 63.177604 10.650782 23.450995 -4.412326 0.000000 0.000000 0.000000 
-3.373859 115.706604 15.891205 0.000000 0.000000 0.000000 3.617012 42.420410 -3.021899 -24.618836 9.961199 7.273083 20.630539 -17.230004 -3.458343 -4.299983 -8.553448 3.313605 -1.504520 -0.356995 0.345038 0.000000 0.000000 0.000000 4.285864 42.778875 -3.654978 -12.415414 12.463190 1.598413 18.125900 12.368646 0.317249 -8.989215 2.521518 -4.854045 -1.797694 -0.721168 0.942815 0.000000 0.000000 0.000000 4.107525 44.202724 -3.723846 7.403238 0.463470 -1.736068 0.611605 0.268362 1.427767 0.657094 0.322713 0.570750 0.000000 0.000000 0.000000 1.111471 0.591277 1.749857 -3.857884 25.767517 -8.242789 -8.222130 19.674312 -0.123921 0.000000 0.000000 0.000000 1.205364 0.596339 2.057322 0.228608 -9.330373 -0.140282 4.479605 0.289403 -1.950817 -63.438155 14.210298 -22.060133 9.015911 -71.105732 11.616776 0.000000 0.000000 0.000000 1.243406 0.598329 1.725819 4.516878 6.139857 8.541967 -3.583476 -0.552687 0.803682 9.691498 14.722177 63.806125 10.762233 24.178750 -4.608379 0.000000 0.000000 0.000000 
-4.804418 115.635231 15.880680 0.000000 0.000000 0.000000 4.157634 46.835546 -3.970500 -26.348969 10.450971 9.330841 19.525711 -15.354598 -2.981377 -3.716236 -6.755242 2.841809 -0.557262 -0.365117 0.446808 0.000000 0.000000 0.000000 5.074601 46.873177 -4.690260 -13.063484 11.049456 1.751820 18.612028 9.903843 0.965355 -9.627900 1.083805 -4.226760 -1.160950 -0.449412 0.636971 0.000000 0.000000 0.000000 4.837669 48.310628 -4.775084 7.543788 0.376674 -2.186873 0.670364 0.137861 1.554116 0.767552 0.244608 0.575677 0.000000 0.000000 0.000000 1.221534 0.469638 1.915509 -4.254069 24.212570 -8.081670 -9.053695 17.869023 1.199553 0.000000 0.000000 0.000000 1.195290 0.459552 2.235983 0.373156 -11.572127 0.526817 3.898214 -0.073512 -1.773948 -63.727775 12.322950 -23.310385 8.574309 -69.681365 11.483527 0.000000 0.000000 0.000000 1.172195 0.463342 1.954328 4.459267 6.087553 8.241661 -3.614210 -0.402001 0.610552 7.524556 9.937147 64.378146 10.741150 24.893920 -4.708271 0.000000 0.000000 0.000000 
